<?xml version="1.0" standalone="no"?>
<!DOCTYPE svg PUBLIC "-//W3C//DTD SVG 20010904//EN"
 "http://www.w3.org/TR/2001/REC-SVG-20010904/DTD/svg10.dtd">
<svg version="1.0" xmlns="http://www.w3.org/2000/svg"
 width="1148.000000pt" height="1148.000000pt" viewBox="0 0 1148.000000 1148.000000"
 preserveAspectRatio="xMidYMid meet">
<metadata>
Created by potrace 1.14, written by Peter Selinger 2001-2017
</metadata>
<g transform="translate(0.000000,1148.000000) scale(0.100000,-0.100000)"
fill="#000000" stroke="none">
<path d="M22 5728 l0 -3768 5729 0 5729 0 0 3768 0 3769 -5729 0 -5728 0 -1
-3769z m5738 1600 c0 -5 6 -6 13 -2 7 5 7 1 -3 -12 -22 -29 -24 -30 -17 -12 7
19 -24 43 -38 30 -5 -4 -5 -2 -2 5 8 13 47 6 47 -9z m3 -383 c-3 -9 -8 -14
-10 -11 -3 3 -2 9 2 15 9 16 15 13 8 -4z m0 -66 c-8 -29 -13 -23 -13 14 0 22
3 28 9 18 5 -7 6 -22 4 -32z m47 -399 c0 -5 -7 -7 -15 -4 -8 4 -15 8 -15 10 0
2 7 4 15 4 8 0 15 -4 15 -10z m76 -8 c-10 -2 -22 0 -28 6 -6 6 0 7 19 4 21 -5
23 -7 9 -10z m-116 -6 c0 -3 -4 -8 -10 -11 -5 -3 -10 -1 -10 4 0 6 5 11 10 11
6 0 10 -2 10 -4z m40 -366 c0 -5 -4 -10 -10 -10 -5 0 -10 5 -10 10 0 6 5 10
10 10 6 0 10 -4 10 -10z m-50 -15 c7 -9 8 -15 2 -15 -5 0 -12 7 -16 15 -3 8
-4 15 -2 15 2 0 9 -7 16 -15z m-63 -691 c-3 -3 -12 -4 -19 -1 -8 3 -5 6 6 6
11 1 17 -2 13 -5z m61 -11 c-10 -2 -26 -2 -35 0 -10 3 -2 5 17 5 19 0 27 -2
18 -5z m-143 -363 c3 -6 -1 -7 -9 -4 -18 7 -21 14 -7 14 6 0 13 -4 16 -10z
m108 -17 c-7 -2 -19 -2 -25 0 -7 3 -2 5 12 5 14 0 19 -2 13 -5z m44 -8 c0 -11
-4 -12 -14 -4 -7 6 -13 13 -13 15 0 2 6 4 13 4 8 0 14 -7 14 -15z m3 -35 c0
-5 -5 -10 -11 -10 -5 0 -7 5 -4 10 3 6 8 10 11 10 2 0 4 -4 4 -10z m-569 -237
c13 -17 13 -17 -6 -3 -11 8 -22 16 -24 17 -2 2 0 3 6 3 6 0 17 -8 24 -17z m94
-43 c3 -6 -1 -7 -9 -4 -18 7 -21 14 -7 14 6 0 13 -4 16 -10z m50 -20 c8 -13
-5 -13 -25 0 -13 8 -13 10 2 10 9 0 20 -4 23 -10z m85 -32 c10 -6 7 -7 -10 -2
-14 3 -32 11 -40 16 -10 6 -7 7 10 2 14 -3 32 -11 40 -16z m115 -23 c39 -8
107 -15 173 -17 35 -1 49 -5 42 -12 -5 -5 -29 -9 -52 -7 -36 2 -174 25 -218
36 -8 2 -21 4 -27 4 -7 1 -13 5 -13 10 0 6 13 6 33 1 17 -5 46 -12 62 -15z
m1185 -149 c0 -2 -8 -10 -17 -17 -16 -13 -17 -12 -4 4 13 16 21 21 21 13z
m-80 -61 c-7 -9 -15 -13 -19 -10 -3 3 1 10 9 15 21 14 24 12 10 -5z m-70 -40
c0 -2 -10 -9 -22 -15 -22 -11 -22 -10 -4 4 21 17 26 19 26 11z m-70 -40 c-14
-8 -29 -14 -35 -14 -5 0 1 6 15 14 14 8 30 14 35 14 6 0 -1 -6 -15 -14z m-64
-30 c-11 -8 -25 -15 -30 -15 -6 1 0 7 14 15 32 19 40 18 16 0z m-80 -32 c-4
-4 -34 -17 -68 -29 -33 -12 -56 -18 -51 -13 5 5 33 18 63 28 65 23 65 23 56
14z m-586 -53 c0 -5 -2 -10 -4 -10 -3 0 -8 5 -11 10 -3 6 -1 10 4 10 6 0 11
-4 11 -10z m447 4 c-11 -11 -157 -42 -157 -33 0 5 10 9 23 10 12 0 42 6 67 13
52 15 76 19 67 10z m-171 -41 c-3 -3 -22 -7 -43 -9 -21 -3 -46 -6 -55 -8 -10
-2 -18 0 -18 4 0 8 34 13 98 16 13 1 21 -1 18 -3z m-128 -18 c-5 -6 -134 -9
-158 -4 -8 1 23 5 70 8 85 6 98 5 88 -4z"/>
</g>
</svg>
