<svg version="1.1" id="Layer_1" xmlns="http://www.w3.org/2000/svg" xmlns:xlink="http://www.w3.org/1999/xlink" x="0px" y="0px"
	 width="100%" viewBox="0 0 574 378" enable-background="new 0 0 574 378" xml:space="preserve">
<path fill="#EFAB72" opacity="1.000000" stroke="none" 
	d="
M575.000000,184.000000 
	C575.000000,249.316315 575.000000,314.132629 575.000000,378.974487 
	C383.733887,378.974487 192.467789,378.974487 1.100842,378.974487 
	C1.100842,253.100372 1.100842,127.200630 1.100842,1.150443 
	C192.333237,1.150443 383.666595,1.150443 575.000000,1.150443 
	C575.000000,61.865562 575.000000,122.682777 575.000000,184.000000 
M89.500008,9.874408 
	C63.228977,9.874408 36.957943,9.874408 10.486610,9.874408 
	C10.486610,130.262268 10.486610,249.958420 10.486610,369.685852 
	C195.748184,369.685852 380.609802,369.685852 565.594727,369.685852 
	C565.594727,249.675095 565.594727,130.104156 565.594727,9.874256 
	C407.018829,9.874256 248.759430,9.874256 89.500008,9.874408 
z"/>
<path fill="#C00E45" opacity="1.000000" stroke="none" 
	d="
M90.000015,9.874332 
	C248.759430,9.874256 407.018829,9.874256 565.594727,9.874256 
	C565.594727,130.104156 565.594727,249.675095 565.594727,369.685852 
	C380.609802,369.685852 195.748184,369.685852 10.486610,369.685852 
	C10.486610,249.958420 10.486610,130.262268 10.486610,9.874408 
	C36.957943,9.874408 63.228977,9.874408 90.000015,9.874332 
M287.089142,108.850159 
	C283.604095,109.037193 280.063690,108.891655 276.642395,109.461540 
	C231.195572,117.031822 202.363434,156.566010 208.974594,202.112747 
	C214.486465,240.086258 249.830994,270.065247 288.352325,269.238861 
	C288.352325,269.238861 288.680084,269.039459 289.619843,269.262939 
	C351.739227,267.998291 389.408630,200.510513 357.060974,147.648926 
	C341.682343,122.517639 318.947815,108.873787 288.410767,109.019989 
	C288.410767,109.019989 287.992554,109.053139 287.089142,108.850159 
M102.133461,157.511215 
	C102.133461,183.116867 102.133461,208.722504 102.133461,234.655151 
	C106.174820,234.655151 109.574043,234.655151 113.310745,234.655151 
	C113.310745,204.412537 113.310745,174.379807 113.310745,144.409729 
	C102.132706,142.701416 102.132713,142.701416 102.133430,153.017868 
	C102.133514,154.184021 102.133583,155.350159 102.133461,157.511215 
M89.355568,143.874298 
	C87.101677,143.983414 84.847786,144.092545 82.522728,144.205109 
	C82.522728,174.658035 82.522728,204.559555 82.522728,234.981049 
	C85.362160,234.981049 87.831650,234.870056 90.286682,235.010986 
	C92.959419,235.164398 93.740303,233.902206 93.736717,231.429688 
	C93.696136,203.430832 93.695885,175.431900 93.735497,147.433044 
	C93.739014,144.946701 92.901520,143.621094 89.355568,143.874298 
M137.641495,101.109276 
	C160.383881,87.980362 183.126266,74.851448 206.179443,61.543118 
	C204.177521,58.115692 202.438507,55.138393 200.480499,51.786160 
	C174.117538,67.011139 148.083298,82.046280 121.637405,97.319160 
	C123.685692,100.768295 125.484512,103.797333 127.394852,107.014175 
	C130.960419,104.956467 133.982132,103.212608 137.641495,101.109276 
M137.591217,78.065582 
	C157.074936,66.803322 176.558655,55.541061 196.213730,44.179749 
	C194.076187,40.620087 192.382263,37.799183 190.413345,34.520336 
	C164.010651,49.766560 137.915329,64.835289 111.573654,80.046272 
	C113.744186,83.588829 115.519363,86.486099 117.470093,89.669907 
	C124.317268,85.714302 130.633438,82.065460 137.591217,78.065582 
M362.427765,73.814003 
	C361.570709,75.366821 360.713623,76.919640 359.628357,78.885910 
	C386.084839,94.155289 412.103058,109.171707 438.447327,124.376312 
	C440.441742,120.836784 442.122742,117.853539 443.991058,114.537796 
	C417.669281,99.347130 391.747498,84.387291 365.477783,69.226662 
	C364.437134,70.770332 363.626282,71.973145 362.427765,73.814003 
M393.718964,303.245697 
	C385.733337,307.881897 377.747681,312.518097 369.507904,317.301849 
	C371.639038,320.824738 373.332397,323.623993 375.321594,326.912231 
	C401.735229,311.667358 427.749451,296.653015 454.072052,281.460693 
	C452.022095,277.979370 450.283264,275.026367 448.344971,271.734680 
	C430.090302,282.272278 412.226685,292.584137 393.718964,303.245697 
M380.998413,287.520477 
	C373.983673,291.593842 366.968933,295.667175 359.577484,299.959259 
	C361.577789,303.357452 363.304474,306.290741 365.276611,309.641083 
	C391.764771,294.344788 417.784515,279.318970 444.112030,264.115448 
	C442.008545,260.623566 440.252258,257.708038 438.297913,254.463791 
	C419.096954,265.535736 400.362061,276.338898 380.998413,287.520477 
M176.307098,88.840515 
	C161.516037,97.382950 146.724960,105.925385 131.635666,114.640060 
	C133.726334,118.176559 135.467957,121.122604 137.378250,124.353989 
	C163.875092,109.052261 189.912949,94.015610 216.243530,78.809898 
	C214.104248,75.327713 212.323624,72.429337 210.342026,69.203827 
	C198.824951,75.843102 187.879379,82.152916 176.307098,88.840515 
M493.284210,219.496353 
	C493.284088,197.197571 493.284180,174.898804 493.283783,152.600021 
	C493.283630,142.982452 493.221466,142.925949 483.524994,144.105698 
	C483.228027,144.141815 482.957031,144.391754 482.470093,144.650223 
	C482.470093,174.546799 482.470093,204.538300 482.470093,234.635162 
	C486.126678,234.635162 489.371765,234.635162 493.284698,234.635162 
	C493.284698,229.711243 493.284698,225.102951 493.284210,219.496353 
M295.500000,314.993805 
	C307.912903,314.993805 320.325806,314.993805 332.599152,314.993805 
	C334.507629,304.041260 334.319611,303.806244 324.344879,303.806152 
	C299.897339,303.805939 275.449799,303.805969 251.002274,303.806122 
	C241.067383,303.806183 241.063156,303.807098 242.505905,313.942200 
	C242.544098,314.210358 242.924042,314.429901 243.437500,314.993774 
	C260.263733,314.993774 277.381866,314.993774 295.500000,314.993805 
M278.500000,354.984070 
	C296.568695,354.984070 314.637421,354.984070 332.874054,354.984070 
	C333.046844,352.999207 333.231201,351.704315 333.260559,350.405945 
	C333.409821,343.806274 333.395752,343.797211 326.873322,343.791443 
	C317.560120,343.783142 308.246948,343.789215 298.933746,343.789215 
	C282.136749,343.789215 265.339722,343.785400 248.542725,343.791229 
	C242.078339,343.793457 242.058365,343.803925 242.205338,350.433319 
	C242.236908,351.858032 242.470169,353.278290 242.638489,354.984039 
	C254.573135,354.984039 266.036560,354.984039 278.500000,354.984070 
M250.576431,55.023792 
	C277.954559,55.023792 305.332672,55.023792 332.575195,55.023792 
	C334.541534,44.158215 334.323883,43.886372 324.352051,43.886314 
	C299.075287,43.886162 273.798523,43.880569 248.521759,43.897655 
	C246.589478,43.898960 244.657303,44.061344 242.674988,44.151119 
	C242.674988,48.009747 242.674988,51.355152 242.674988,55.023808 
	C245.307434,55.023808 247.456879,55.023808 250.576431,55.023792 
M133.709152,167.495209 
	C133.707504,161.003036 133.515076,154.503525 133.764908,148.021042 
	C133.962662,142.890137 130.449814,144.137665 127.684914,144.068695 
	C124.943604,144.000320 121.909485,143.264038 122.060776,147.969315 
	C122.317413,155.951370 122.128487,163.947739 122.127266,171.938095 
	C122.126709,175.532913 122.127174,179.127731 122.127174,182.581284 
	C133.710098,184.353790 133.710129,184.353790 133.709473,173.986053 
	C133.709351,172.154922 133.708862,170.323807 133.709152,167.495209 
M133.707703,230.224564 
	C133.707703,218.944778 133.707703,207.664993 133.707703,195.863892 
	C131.321136,195.863892 129.656158,196.063156 128.055542,195.826736 
	C123.138138,195.100464 121.832336,197.199020 122.021133,201.944901 
	C122.385208,211.096512 122.110489,220.272919 122.142365,229.438904 
	C122.148438,231.186325 122.347145,232.933105 122.475998,234.982925 
	C125.415253,234.982925 127.746620,234.841461 130.053589,235.018295 
	C133.016510,235.245422 133.927643,233.796219 133.707703,230.224564 
M140.330048,269.128143 
	C148.624756,273.924011 156.919479,278.719879 165.737793,283.818512 
	C167.754929,280.349548 169.516815,277.319550 171.429810,274.029694 
	C159.777603,267.325409 148.798462,261.008423 137.505661,254.510941 
	C135.480606,258.127106 133.816528,261.098633 132.035614,264.278809 
	C134.856537,265.942871 137.271332,267.367371 140.330048,269.128143 
M173.794357,334.693420 
	C179.264755,337.797913 184.735138,340.902435 190.528992,344.190521 
	C192.444748,340.910736 194.179947,337.940033 196.172760,334.528320 
	C184.812119,327.965515 173.775650,321.589935 162.300598,314.960999 
	C160.380356,318.314972 158.620499,321.388824 156.692657,324.756073 
	C162.560944,328.149933 167.870834,331.220825 173.794357,334.693420 
M443.303925,310.792267 
	C450.143585,306.806854 456.983276,302.821472 464.056915,298.699768 
	C462.008209,295.257050 460.259888,292.319092 458.317230,289.054626 
	C446.910004,295.653564 435.912781,302.015350 424.580505,308.570953 
	C426.599518,312.034912 428.319763,314.986267 430.224823,318.254730 
	C434.643768,315.722229 438.649445,313.426605 443.303925,310.792267 
M402.191010,57.276951 
	C405.875946,59.400745 409.560852,61.524540 413.670074,63.892864 
	C415.681854,60.382999 417.366333,57.444153 419.273865,54.116127 
	C407.854767,47.518265 396.858459,41.164700 385.511536,34.608566 
	C383.541718,37.973488 381.813049,40.926468 379.811066,44.346306 
	C387.276794,48.665852 394.412231,52.794292 402.191010,57.276951 
M383.556549,340.912994 
	C384.207581,341.853607 384.858582,342.794189 385.708954,344.022827 
	C396.901672,337.545441 407.944855,331.154602 419.283539,324.592743 
	C417.317078,321.206970 415.586853,318.227936 413.633484,314.864655 
	C402.270538,321.425354 391.233276,327.798004 379.939728,334.318604 
	C381.155518,336.562042 382.169678,338.433411 383.556549,340.912994 
M407.207550,70.227409 
	C396.726837,64.180336 386.246094,58.133270 375.438812,51.897785 
	C373.496033,55.321255 371.798309,58.312874 369.874817,61.702335 
	C381.202332,68.241730 392.244843,74.616592 404.442902,81.658554 
	C405.685852,77.569763 406.740051,74.101845 407.207550,70.227409 
M200.869705,326.065887 
	C202.558701,323.253601 204.247711,320.441345 206.179657,317.224548 
	C194.759232,310.628479 183.737915,304.262878 172.339767,297.679657 
	C170.379700,301.055084 168.657944,304.020142 166.588730,307.583557 
	C178.059311,313.992401 189.179718,320.205597 200.869705,326.065887 
M128.872772,285.612610 
	C137.744217,290.726746 146.615677,295.840912 155.787720,301.128326 
	C157.778961,297.626770 159.463882,294.663849 161.350708,291.345917 
	C149.877167,284.718933 138.860504,278.355865 127.525887,271.809174 
	C125.561012,275.280090 123.867393,278.271881 122.013931,281.545990 
	C124.285805,282.886383 126.270485,284.057343 128.872772,285.612610 
M426.921600,81.624855 
	C424.796204,80.416168 422.670837,79.207474 420.188110,77.795570 
	C418.256958,81.160431 416.549957,84.134674 414.605438,87.522797 
	C425.975677,94.089951 437.006134,100.460869 448.376038,107.027840 
	C450.326447,103.686111 452.063232,100.710350 454.049805,97.306671 
	C445.053864,92.098167 436.309631,87.035400 426.921600,81.624855 
M440.867706,79.608765 
	C446.587189,82.903183 452.306671,86.197601 458.410400,89.713348 
	C460.389893,86.224258 462.059784,83.280891 463.971588,79.911163 
	C452.429108,73.259384 441.454041,66.934593 430.171783,60.432774 
	C428.105560,64.075012 426.435242,67.019333 424.621307,70.216858 
	C430.194427,73.429497 435.219421,76.326164 440.867706,79.608765 
M190.466949,285.038269 
	C187.876999,283.602356 185.287064,282.166443 182.283524,280.501221 
	C180.365250,283.790070 178.648315,286.733734 176.672729,290.120880 
	C188.076843,296.696625 199.097702,303.051392 210.501236,309.626770 
	C212.508789,306.137512 214.209839,303.180969 216.105331,299.886505 
	C207.486588,294.890625 199.297256,290.143677 190.466949,285.038269 
M138.957855,314.526855 
	C141.090118,315.729553 143.222366,316.932220 145.800720,318.386505 
	C147.710190,315.061768 149.408081,312.105438 151.384216,308.664642 
	C140.014923,302.102264 129.023911,295.758240 117.578621,289.152008 
	C115.600960,292.636749 113.934479,295.573212 112.012398,298.960052 
	C121.136353,304.225037 129.733353,309.185944 138.957855,314.526855 
M296.845673,23.916080 
	C291.179138,26.489738 295.612213,30.963140 294.053070,34.611313 
	C307.529968,34.611313 320.193878,34.611313 333.009979,34.611313 
	C333.114380,32.885906 333.103638,31.558842 333.289581,30.259926 
	C333.971619,25.494665 332.549011,23.481220 327.170959,23.750721 
	C317.397064,24.240499 307.581177,23.893101 296.845673,23.916080 
M258.503296,323.797974 
	C256.178833,323.798065 253.854355,323.798065 251.529877,323.798218 
	C241.810486,323.798828 241.584793,324.065033 243.097595,333.927979 
	C243.138351,334.193695 243.508514,334.408875 243.698608,334.618439 
	C256.260834,334.618439 268.787476,334.618439 281.598267,334.618439 
	C281.688660,332.635468 281.633575,330.987518 281.862244,329.379944 
	C282.469971,325.107849 280.976807,323.393463 276.430847,323.706146 
	C270.812286,324.092590 265.146912,323.798004 258.503296,323.797974 
M301.606384,334.994904 
	C312.006439,334.994904 322.406494,334.994904 333.001495,334.994904 
	C333.119659,332.755981 333.074158,331.264648 333.297607,329.814789 
	C334.037109,325.015869 332.108582,323.470001 327.280121,323.694916 
	C319.158600,324.073120 311.006714,323.798096 302.867584,323.798279 
	C293.082520,323.798492 292.711914,324.286133 294.949310,334.994904 
	C296.745544,334.994904 298.693298,334.994904 301.606384,334.994904 
M245.742355,35.016628 
	C257.619598,35.016628 269.496826,35.016628 281.498077,35.016628 
	C281.498077,30.978514 281.498077,27.746126 281.498077,24.314133 
	C268.502991,24.314133 255.848862,24.314133 241.779144,24.314133 
	C242.920578,28.347673 243.857071,31.656961 245.742355,35.016628 
M462.068756,221.488770 
	C462.068756,225.888962 462.068756,230.289139 462.068756,234.579987 
	C466.267578,234.579987 469.512146,234.579987 473.299133,234.579987 
	C473.299133,224.434189 473.299286,214.662903 473.299072,204.891632 
	C473.298859,195.123138 473.298340,195.119492 463.366760,196.152023 
	C463.085297,196.181274 462.832458,196.486542 462.068817,196.993073 
	C462.068817,204.608551 462.068817,212.550842 462.068756,221.488770 
M448.472351,195.889481 
	C446.535522,195.889481 444.598694,195.889481 442.502380,195.889481 
	C442.502380,209.246643 442.502380,221.917130 442.502380,234.616119 
	C446.187134,234.616119 449.432220,234.616119 453.252167,234.616119 
	C453.252167,222.352295 453.334473,210.425369 453.086609,198.505295 
	C453.067963,197.609680 450.693268,196.763062 448.472351,195.889481 
M242.733322,70.438011 
	C242.311050,73.749268 243.465805,75.328232 247.096008,75.074860 
	C250.896240,74.809608 254.729446,75.017632 258.548248,75.017830 
	C266.126312,75.018219 273.704346,75.017944 281.474152,75.017944 
	C281.630219,73.046997 281.798431,71.757027 281.823608,70.464256 
	C281.951752,63.889252 281.938782,63.882782 275.484680,63.878513 
	C266.518799,63.872585 257.545990,64.085785 248.590012,63.788036 
	C244.194168,63.641895 241.915085,64.731758 242.733322,70.438011 
M462.067749,155.526581 
	C462.067749,164.595963 462.067749,173.665344 462.067749,182.919250 
	C464.347565,183.023804 465.843018,182.961044 467.294983,183.183044 
	C472.098541,183.917435 473.633179,181.989182 473.405060,177.158768 
	C473.021454,169.037109 473.300385,160.884186 473.300110,152.744415 
	C473.299774,142.983490 472.801941,142.607544 462.067810,144.856018 
	C462.067810,147.983627 462.067810,151.260635 462.067749,155.526581 
M446.618835,144.069809 
	C443.253174,143.610031 441.844391,144.851013 442.004303,148.453659 
	C442.262054,154.260178 442.072235,160.086563 442.071930,165.904556 
	C442.071625,171.495346 442.071869,177.086136 442.071869,182.817429 
	C444.125305,182.967651 445.427887,183.124298 446.732910,183.148056 
	C453.288605,183.267395 453.297424,183.255219 453.303497,176.728485 
	C453.311798,167.752151 453.071686,158.767197 453.402496,149.803070 
	C453.571960,145.211533 452.120941,143.303833 446.618835,144.069809 
M314.499573,63.876850 
	C309.188843,63.877602 303.869476,64.063049 298.570435,63.814568 
	C295.000549,63.647171 293.801788,65.031044 294.129150,68.427490 
	C294.327576,70.486153 294.165710,72.579552 294.165710,74.682907 
	C307.578400,74.682907 320.118073,74.682907 333.273010,74.682907 
	C333.273010,72.409210 333.089478,70.443779 333.311737,68.525360 
	C333.756012,64.690269 332.043304,63.603966 328.440155,63.818050 
	C324.140411,64.073517 319.813812,63.877266 314.499573,63.876850 
z"/>
<path fill="#FFFDFD" opacity="1.000000" stroke="none" 
	d="
M288.796509,109.172867 
	C318.947815,108.873787 341.682343,122.517639 357.060974,147.648926 
	C389.408630,200.510513 351.739227,267.998291 289.187561,268.685059 
	C288.767395,262.617523 288.940338,257.121735 288.732361,251.640396 
	C288.603485,248.244400 289.753021,247.157623 293.214294,246.892166 
	C305.865143,245.921921 317.219879,241.305954 326.568481,232.710785 
	C345.014465,215.751434 351.025177,194.700226 343.388336,171.030197 
	C335.652679,147.053879 317.990784,133.954544 292.975708,131.098022 
	C289.792450,130.734528 288.631012,129.844818 288.738464,126.638512 
	C288.933350,120.822510 288.795471,114.995361 288.796509,109.172867 
z"/>
<path fill="#F0AC73" opacity="1.000000" stroke="none" 
	d="
M287.984802,269.128723 
	C249.830994,270.065247 214.486465,240.086258 208.974594,202.112747 
	C202.363434,156.566010 231.195572,117.031822 276.642395,109.461540 
	C280.063690,108.891655 283.604095,109.037193 287.540955,109.416519 
	C288.007965,116.920891 288.023132,123.858894 287.592682,130.839111 
	C253.984009,132.072937 228.586227,158.925964 230.154907,191.699188 
	C231.615967,222.223557 256.201965,246.744095 288.028076,247.673798 
	C288.005524,255.128571 287.995148,262.128632 287.984802,269.128723 
z"/>
<path fill="#F0AE76" opacity="1.000000" stroke="none" 
	d="
M288.168579,269.183777 
	C287.995148,262.128632 288.005524,255.128571 288.043579,247.187149 
	C288.031830,239.484146 287.992432,232.722488 288.396301,225.969086 
	C309.167603,226.108643 325.547333,209.315399 325.334717,188.560806 
	C325.122375,167.830673 308.474762,151.565964 287.992554,151.569336 
	C288.034180,144.332108 288.036255,137.564499 288.038330,130.796906 
	C288.023132,123.858894 288.007965,116.920891 287.992676,109.518005 
	C287.992554,109.053139 288.410767,109.019989 288.603638,109.096428 
	C288.795471,114.995361 288.933350,120.822510 288.738464,126.638512 
	C288.631012,129.844818 289.792450,130.734528 292.975708,131.098022 
	C317.990784,133.954544 335.652679,147.053879 343.388336,171.030197 
	C351.025177,194.700226 345.014465,215.751434 326.568481,232.710785 
	C317.219879,241.305954 305.865143,245.921921 293.214294,246.892166 
	C289.753021,247.157623 288.603485,248.244400 288.732361,251.640396 
	C288.940338,257.121735 288.767395,262.617523 288.717712,268.573334 
	C288.680084,269.039459 288.352325,269.238861 288.168579,269.183777 
z"/>
<path fill="#EDA370" opacity="1.000000" stroke="none" 
	d="
M102.133560,157.013763 
	C102.133583,155.350159 102.133514,154.184021 102.133430,153.017868 
	C102.132713,142.701416 102.132706,142.701416 113.310745,144.409729 
	C113.310745,174.379807 113.310745,204.412537 113.310745,234.655151 
	C109.574043,234.655151 106.174820,234.655151 102.133461,234.655151 
	C102.133461,208.722504 102.133461,183.116867 102.133560,157.013763 
z"/>
<path fill="#EDA370" opacity="1.000000" stroke="none" 
	d="
M89.810143,143.877197 
	C92.901520,143.621094 93.739014,144.946701 93.735497,147.433044 
	C93.695885,175.431900 93.696136,203.430832 93.736717,231.429688 
	C93.740303,233.902206 92.959419,235.164398 90.286682,235.010986 
	C87.831650,234.870056 85.362160,234.981049 82.522728,234.981049 
	C82.522728,204.559555 82.522728,174.658035 82.522728,144.205109 
	C84.847786,144.092545 87.101677,143.983414 89.810143,143.877197 
z"/>
<path fill="#EFA972" opacity="1.000000" stroke="none" 
	d="
M137.322662,101.289017 
	C133.982132,103.212608 130.960419,104.956467 127.394852,107.014175 
	C125.484512,103.797333 123.685692,100.768295 121.637405,97.319160 
	C148.083298,82.046280 174.117538,67.011139 200.480499,51.786160 
	C202.438507,55.138393 204.177521,58.115692 206.179443,61.543118 
	C183.126266,74.851448 160.383881,87.980362 137.322662,101.289017 
z"/>
<path fill="#EFA972" opacity="1.000000" stroke="none" 
	d="
M137.270416,78.241104 
	C130.633438,82.065460 124.317268,85.714302 117.470093,89.669907 
	C115.519363,86.486099 113.744186,83.588829 111.573654,80.046272 
	C137.915329,64.835289 164.010651,49.766560 190.413345,34.520336 
	C192.382263,37.799183 194.076187,40.620087 196.213730,44.179749 
	C176.558655,55.541061 157.074936,66.803322 137.270416,78.241104 
z"/>
<path fill="#EFA972" opacity="1.000000" stroke="none" 
	d="
M362.621582,73.494980 
	C363.626282,71.973145 364.437134,70.770332 365.477783,69.226662 
	C391.747498,84.387291 417.669281,99.347130 443.991058,114.537796 
	C442.122742,117.853539 440.441742,120.836784 438.447327,124.376312 
	C412.103058,109.171707 386.084839,94.155289 359.628357,78.885910 
	C360.713623,76.919640 361.570709,75.366821 362.621582,73.494980 
z"/>
<path fill="#EFA972" opacity="1.000000" stroke="none" 
	d="
M394.041016,303.070862 
	C412.226685,292.584137 430.090302,282.272278 448.344971,271.734680 
	C450.283264,275.026367 452.022095,277.979370 454.072052,281.460693 
	C427.749451,296.653015 401.735229,311.667358 375.321594,326.912231 
	C373.332397,323.623993 371.639038,320.824738 369.507904,317.301849 
	C377.747681,312.518097 385.733337,307.881897 394.041016,303.070862 
z"/>
<path fill="#EFA972" opacity="1.000000" stroke="none" 
	d="
M381.312805,287.331299 
	C400.362061,276.338898 419.096954,265.535736 438.297913,254.463791 
	C440.252258,257.708038 442.008545,260.623566 444.112030,264.115448 
	C417.784515,279.318970 391.764771,294.344788 365.276611,309.641083 
	C363.304474,306.290741 361.577789,303.357452 359.577484,299.959259 
	C366.968933,295.667175 373.983673,291.593842 381.312805,287.331299 
z"/>
<path fill="#EFA972" opacity="1.000000" stroke="none" 
	d="
M176.620453,88.651627 
	C187.879379,82.152916 198.824951,75.843102 210.342026,69.203827 
	C212.323624,72.429337 214.104248,75.327713 216.243530,78.809898 
	C189.912949,94.015610 163.875092,109.052261 137.378250,124.353989 
	C135.467957,121.122604 133.726334,118.176559 131.635666,114.640060 
	C146.724960,105.925385 161.516037,97.382950 176.620453,88.651627 
z"/>
<path fill="#EFAB72" opacity="1.000000" stroke="none" 
	d="
M493.284454,219.995514 
	C493.284698,225.102951 493.284698,229.711243 493.284698,234.635162 
	C489.371765,234.635162 486.126678,234.635162 482.470093,234.635162 
	C482.470093,204.538300 482.470093,174.546799 482.470093,144.650223 
	C482.957031,144.391754 483.228027,144.141815 483.524994,144.105698 
	C493.221466,142.925949 493.283630,142.982452 493.283783,152.600021 
	C493.284180,174.898804 493.284088,197.197571 493.284454,219.995514 
z"/>
<path fill="#F0AC73" opacity="1.000000" stroke="none" 
	d="
M295.000000,314.993774 
	C277.381866,314.993774 260.263733,314.993774 243.437500,314.993774 
	C242.924042,314.429901 242.544098,314.210358 242.505905,313.942200 
	C241.063156,303.807098 241.067383,303.806183 251.002274,303.806122 
	C275.449799,303.805969 299.897339,303.805939 324.344879,303.806152 
	C334.319611,303.806244 334.507629,304.041260 332.599152,314.993805 
	C320.325806,314.993805 307.912903,314.993805 295.000000,314.993774 
z"/>
<path fill="#F0AC73" opacity="1.000000" stroke="none" 
	d="
M278.000000,354.984070 
	C266.036560,354.984039 254.573135,354.984039 242.638489,354.984039 
	C242.470169,353.278290 242.236908,351.858032 242.205338,350.433319 
	C242.058365,343.803925 242.078339,343.793457 248.542725,343.791229 
	C265.339722,343.785400 282.136749,343.789215 298.933746,343.789215 
	C308.246948,343.789215 317.560120,343.783142 326.873322,343.791443 
	C333.395752,343.797211 333.409821,343.806274 333.260559,350.405945 
	C333.231201,351.704315 333.046844,352.999207 332.874054,354.984070 
	C314.637421,354.984070 296.568695,354.984070 278.000000,354.984070 
z"/>
<path fill="#F0AC73" opacity="1.000000" stroke="none" 
	d="
M250.091385,55.023800 
	C247.456879,55.023808 245.307434,55.023808 242.674988,55.023808 
	C242.674988,51.355152 242.674988,48.009747 242.674988,44.151119 
	C244.657303,44.061344 246.589478,43.898960 248.521759,43.897655 
	C273.798523,43.880569 299.075287,43.886162 324.352051,43.886314 
	C334.323883,43.886372 334.541534,44.158215 332.575195,55.023792 
	C305.332672,55.023792 277.954559,55.023792 250.091385,55.023800 
z"/>
<path fill="#EDA370" opacity="1.000000" stroke="none" 
	d="
M133.708862,167.993942 
	C133.708862,170.323807 133.709351,172.154922 133.709473,173.986053 
	C133.710129,184.353790 133.710098,184.353790 122.127174,182.581284 
	C122.127174,179.127731 122.126709,175.532913 122.127266,171.938095 
	C122.128487,163.947739 122.317413,155.951370 122.060776,147.969315 
	C121.909485,143.264038 124.943604,144.000320 127.684914,144.068695 
	C130.449814,144.137665 133.962662,142.890137 133.764908,148.021042 
	C133.515076,154.503525 133.707504,161.003036 133.708862,167.993942 
z"/>
<path fill="#EDA370" opacity="1.000000" stroke="none" 
	d="
M133.704834,230.686340 
	C133.927643,233.796219 133.016510,235.245422 130.053589,235.018295 
	C127.746620,234.841461 125.415253,234.982925 122.475998,234.982925 
	C122.347145,232.933105 122.148438,231.186325 122.142365,229.438904 
	C122.110489,220.272919 122.385208,211.096512 122.021133,201.944901 
	C121.832336,197.199020 123.138138,195.100464 128.055542,195.826736 
	C129.656158,196.063156 131.321136,195.863892 133.707703,195.863892 
	C133.707703,207.664993 133.707703,218.944778 133.704834,230.686340 
z"/>
<path fill="#EFA872" opacity="1.000000" stroke="none" 
	d="
M140.008087,268.960022 
	C137.271332,267.367371 134.856537,265.942871 132.035614,264.278809 
	C133.816528,261.098633 135.480606,258.127106 137.505661,254.510941 
	C148.798462,261.008423 159.777603,267.325409 171.429810,274.029694 
	C169.516815,277.319550 167.754929,280.349548 165.737793,283.818512 
	C156.919479,278.719879 148.624756,273.924011 140.008087,268.960022 
z"/>
<path fill="#EFA872" opacity="1.000000" stroke="none" 
	d="
M173.487549,334.492554 
	C167.870834,331.220825 162.560944,328.149933 156.692657,324.756073 
	C158.620499,321.388824 160.380356,318.314972 162.300598,314.960999 
	C173.775650,321.589935 184.812119,327.965515 196.172760,334.528320 
	C194.179947,337.940033 192.444748,340.910736 190.528992,344.190521 
	C184.735138,340.902435 179.264755,337.797913 173.487549,334.492554 
z"/>
<path fill="#EFA972" opacity="1.000000" stroke="none" 
	d="
M442.979523,310.961609 
	C438.649445,313.426605 434.643768,315.722229 430.224823,318.254730 
	C428.319763,314.986267 426.599518,312.034912 424.580505,308.570953 
	C435.912781,302.015350 446.910004,295.653564 458.317230,289.054626 
	C460.259888,292.319092 462.008209,295.257050 464.056915,298.699768 
	C456.983276,302.821472 450.143585,306.806854 442.979523,310.961609 
z"/>
<path fill="#EFA872" opacity="1.000000" stroke="none" 
	d="
M401.869324,57.099838 
	C394.412231,52.794292 387.276794,48.665852 379.811066,44.346306 
	C381.813049,40.926468 383.541718,37.973488 385.511536,34.608566 
	C396.858459,41.164700 407.854767,47.518265 419.273865,54.116127 
	C417.366333,57.444153 415.681854,60.382999 413.670074,63.892864 
	C409.560852,61.524540 405.875946,59.400745 401.869324,57.099838 
z"/>
<path fill="#EFA872" opacity="1.000000" stroke="none" 
	d="
M383.370178,340.608887 
	C382.169678,338.433411 381.155518,336.562042 379.939728,334.318604 
	C391.233276,327.798004 402.270538,321.425354 413.633484,314.864655 
	C415.586853,318.227936 417.317078,321.206970 419.283539,324.592743 
	C407.944855,331.154602 396.901672,337.545441 385.708954,344.022827 
	C384.858582,342.794189 384.207581,341.853607 383.370178,340.608887 
z"/>
<path fill="#EFA872" opacity="1.000000" stroke="none" 
	d="
M407.500916,70.430664 
	C406.740051,74.101845 405.685852,77.569763 404.442902,81.658554 
	C392.244843,74.616592 381.202332,68.241730 369.874817,61.702335 
	C371.798309,58.312874 373.496033,55.321255 375.438812,51.897785 
	C386.246094,58.133270 396.726837,64.180336 407.500916,70.430664 
z"/>
<path fill="#EFA972" opacity="1.000000" stroke="none" 
	d="
M200.584915,326.242340 
	C189.179718,320.205597 178.059311,313.992401 166.588730,307.583557 
	C168.657944,304.020142 170.379700,301.055084 172.339767,297.679657 
	C183.737915,304.262878 194.759232,310.628479 206.179657,317.224548 
	C204.247711,320.441345 202.558701,323.253601 200.584915,326.242340 
z"/>
<path fill="#EFA972" opacity="1.000000" stroke="none" 
	d="
M128.563965,285.420441 
	C126.270485,284.057343 124.285805,282.886383 122.013931,281.545990 
	C123.867393,278.271881 125.561012,275.280090 127.525887,271.809174 
	C138.860504,278.355865 149.877167,284.718933 161.350708,291.345917 
	C159.463882,294.663849 157.778961,297.626770 155.787720,301.128326 
	C146.615677,295.840912 137.744217,290.726746 128.563965,285.420441 
z"/>
<path fill="#EFA972" opacity="1.000000" stroke="none" 
	d="
M427.243530,81.798744 
	C436.309631,87.035400 445.053864,92.098167 454.049805,97.306671 
	C452.063232,100.710350 450.326447,103.686111 448.376038,107.027840 
	C437.006134,100.460869 425.975677,94.089951 414.605438,87.522797 
	C416.549957,84.134674 418.256958,81.160431 420.188110,77.795570 
	C422.670837,79.207474 424.796204,80.416168 427.243530,81.798744 
z"/>
<path fill="#EFA972" opacity="1.000000" stroke="none" 
	d="
M440.556061,79.415802 
	C435.219421,76.326164 430.194427,73.429497 424.621307,70.216858 
	C426.435242,67.019333 428.105560,64.075012 430.171783,60.432774 
	C441.454041,66.934593 452.429108,73.259384 463.971588,79.911163 
	C462.059784,83.280891 460.389893,86.224258 458.410400,89.713348 
	C452.306671,86.197601 446.587189,82.903183 440.556061,79.415802 
z"/>
<path fill="#EFA972" opacity="1.000000" stroke="none" 
	d="
M190.787430,285.217499 
	C199.297256,290.143677 207.486588,294.890625 216.105331,299.886505 
	C214.209839,303.180969 212.508789,306.137512 210.501236,309.626770 
	C199.097702,303.051392 188.076843,296.696625 176.672729,290.120880 
	C178.648315,286.733734 180.365250,283.790070 182.283524,280.501221 
	C185.287064,282.166443 187.876999,283.602356 190.787430,285.217499 
z"/>
<path fill="#EFA972" opacity="1.000000" stroke="none" 
	d="
M138.644104,314.336853 
	C129.733353,309.185944 121.136353,304.225037 112.012398,298.960052 
	C113.934479,295.573212 115.600960,292.636749 117.578621,289.152008 
	C129.023911,295.758240 140.014923,302.102264 151.384216,308.664642 
	C149.408081,312.105438 147.710190,315.061768 145.800720,318.386505 
	C143.222366,316.932220 141.090118,315.729553 138.644104,314.336853 
z"/>
<path fill="#F0AC73" opacity="1.000000" stroke="none" 
	d="
M297.314270,23.905581 
	C307.581177,23.893101 317.397064,24.240499 327.170959,23.750721 
	C332.549011,23.481220 333.971619,25.494665 333.289581,30.259926 
	C333.103638,31.558842 333.114380,32.885906 333.009979,34.611313 
	C320.193878,34.611313 307.529968,34.611313 294.053070,34.611313 
	C295.612213,30.963140 291.179138,26.489738 297.314270,23.905581 
z"/>
<path fill="#F0AC73" opacity="1.000000" stroke="none" 
	d="
M259.002533,323.797821 
	C265.146912,323.798004 270.812286,324.092590 276.430847,323.706146 
	C280.976807,323.393463 282.469971,325.107849 281.862244,329.379944 
	C281.633575,330.987518 281.688660,332.635468 281.598267,334.618439 
	C268.787476,334.618439 256.260834,334.618439 243.698608,334.618439 
	C243.508514,334.408875 243.138351,334.193695 243.097595,333.927979 
	C241.584793,324.065033 241.810486,323.798828 251.529877,323.798218 
	C253.854355,323.798065 256.178833,323.798065 259.002533,323.797821 
z"/>
<path fill="#F0AC73" opacity="1.000000" stroke="none" 
	d="
M301.123718,334.994904 
	C298.693298,334.994904 296.745544,334.994904 294.949310,334.994904 
	C292.711914,324.286133 293.082520,323.798492 302.867584,323.798279 
	C311.006714,323.798096 319.158600,324.073120 327.280121,323.694916 
	C332.108582,323.470001 334.037109,325.015869 333.297607,329.814789 
	C333.074158,331.264648 333.119659,332.755981 333.001495,334.994904 
	C322.406494,334.994904 312.006439,334.994904 301.123718,334.994904 
z"/>
<path fill="#F0AC73" opacity="1.000000" stroke="none" 
	d="
M245.267944,34.991440 
	C243.857071,31.656961 242.920578,28.347673 241.779144,24.314133 
	C255.848862,24.314133 268.502991,24.314133 281.498077,24.314133 
	C281.498077,27.746126 281.498077,30.978514 281.498077,35.016628 
	C269.496826,35.016628 257.619598,35.016628 245.267944,34.991440 
z"/>
<path fill="#EFAB72" opacity="1.000000" stroke="none" 
	d="
M462.068787,220.990952 
	C462.068817,212.550842 462.068817,204.608551 462.068817,196.993073 
	C462.832458,196.486542 463.085297,196.181274 463.366760,196.152023 
	C473.298340,195.119492 473.298859,195.123138 473.299072,204.891632 
	C473.299286,214.662903 473.299133,224.434189 473.299133,234.579987 
	C469.512146,234.579987 466.267578,234.579987 462.068756,234.579987 
	C462.068756,230.289139 462.068756,225.888962 462.068787,220.990952 
z"/>
<path fill="#EFAB72" opacity="1.000000" stroke="none" 
	d="
M448.943085,195.891571 
	C450.693268,196.763062 453.067963,197.609680 453.086609,198.505295 
	C453.334473,210.425369 453.252167,222.352295 453.252167,234.616119 
	C449.432220,234.616119 446.187134,234.616119 442.502380,234.616119 
	C442.502380,221.917130 442.502380,209.246643 442.502380,195.889481 
	C444.598694,195.889481 446.535522,195.889481 448.943085,195.891571 
z"/>
<path fill="#F0AC73" opacity="1.000000" stroke="none" 
	d="
M242.732498,69.964310 
	C241.915085,64.731758 244.194168,63.641895 248.590012,63.788036 
	C257.545990,64.085785 266.518799,63.872585 275.484680,63.878513 
	C281.938782,63.882782 281.951752,63.889252 281.823608,70.464256 
	C281.798431,71.757027 281.630219,73.046997 281.474152,75.017944 
	C273.704346,75.017944 266.126312,75.018219 258.548248,75.017830 
	C254.729446,75.017632 250.896240,74.809608 247.096008,75.074860 
	C243.465805,75.328232 242.311050,73.749268 242.732498,69.964310 
z"/>
<path fill="#EFAA72" opacity="1.000000" stroke="none" 
	d="
M462.067780,155.032120 
	C462.067810,151.260635 462.067810,147.983627 462.067810,144.856018 
	C472.801941,142.607544 473.299774,142.983490 473.300110,152.744415 
	C473.300385,160.884186 473.021454,169.037109 473.405060,177.158768 
	C473.633179,181.989182 472.098541,183.917435 467.294983,183.183044 
	C465.843018,182.961044 464.347565,183.023804 462.067749,182.919250 
	C462.067749,173.665344 462.067749,164.595963 462.067780,155.032120 
z"/>
<path fill="#EFAA72" opacity="1.000000" stroke="none" 
	d="
M447.079407,144.069489 
	C452.120941,143.303833 453.571960,145.211533 453.402496,149.803070 
	C453.071686,158.767197 453.311798,167.752151 453.303497,176.728485 
	C453.297424,183.255219 453.288605,183.267395 446.732910,183.148056 
	C445.427887,183.124298 444.125305,182.967651 442.071869,182.817429 
	C442.071869,177.086136 442.071625,171.495346 442.071930,165.904556 
	C442.072235,160.086563 442.262054,154.260178 442.004303,148.453659 
	C441.844391,144.851013 443.253174,143.610031 447.079407,144.069489 
z"/>
<path fill="#F0AC73" opacity="1.000000" stroke="none" 
	d="
M314.999207,63.876778 
	C319.813812,63.877266 324.140411,64.073517 328.440155,63.818050 
	C332.043304,63.603966 333.756012,64.690269 333.311737,68.525360 
	C333.089478,70.443779 333.273010,72.409210 333.273010,74.682907 
	C320.118073,74.682907 307.578400,74.682907 294.165710,74.682907 
	C294.165710,72.579552 294.327576,70.486153 294.129150,68.427490 
	C293.801788,65.031044 295.000549,63.647171 298.570435,63.814568 
	C303.869476,64.063049 309.188843,63.877602 314.999207,63.876778 
z"/>
<path fill="#FFFEFE" opacity="1.000000" stroke="none" 
	d="
M287.592712,130.839111 
	C288.036255,137.564499 288.034180,144.332108 288.012756,151.550552 
	C287.993439,152.001404 288.031677,151.961670 287.594910,151.947235 
	C266.671082,152.671646 250.871384,169.083420 251.051514,189.438187 
	C251.230728,209.686066 267.578613,225.865952 288.012512,226.018356 
	C287.993378,225.998459 287.953003,225.960831 287.953003,225.960831 
	C287.992432,232.722488 288.031830,239.484146 288.055756,246.732452 
	C256.201965,246.744095 231.615967,222.223557 230.154907,191.699188 
	C228.586227,158.925964 253.984009,132.072937 287.592712,130.839111 
z"/>
<path fill="#FFFEFD" opacity="1.000000" stroke="none" 
	d="
M287.973236,152.020172 
	C308.474762,151.565964 325.122375,167.830673 325.334717,188.560806 
	C325.547333,209.315399 309.167603,226.108643 288.396301,225.969086 
	C287.953003,225.960831 287.993378,225.998459 288.114563,225.556427 
	C288.142151,219.063492 288.048615,213.012589 288.366516,206.985687 
	C299.659119,206.180984 306.620453,198.638565 306.240387,188.089661 
	C305.886414,178.265778 298.350800,171.238586 288.076355,170.580124 
	C288.142273,164.068619 288.086975,158.015137 288.031677,151.961670 
	C288.031677,151.961670 287.993439,152.001404 287.973236,152.020172 
z"/>
<path fill="#F0AE75" opacity="1.000000" stroke="none" 
	d="
M287.955048,206.961685 
	C288.048615,213.012589 288.142151,219.063492 288.133667,225.576324 
	C267.578613,225.865952 251.230728,209.686066 251.051514,189.438187 
	C250.871384,169.083420 266.671082,152.671646 287.594910,151.947235 
	C288.086975,158.015137 288.142273,164.068619 288.094666,170.561920 
	C287.991791,171.001770 288.028717,170.965698 287.628601,170.970688 
	C276.769958,172.308533 269.870972,179.733719 270.109650,189.400192 
	C270.349213,199.100418 277.721039,206.355011 288.010315,207.016296 
	C287.991791,206.998199 287.955048,206.961685 287.955048,206.961685 
z"/>
<path fill="#F0AE74" opacity="1.000000" stroke="none" 
	d="
M287.973480,171.019958 
	C298.350800,171.238586 305.886414,178.265778 306.240387,188.089661 
	C306.620453,198.638565 299.659119,206.180984 288.366516,206.985687 
	C287.955048,206.961685 287.991791,206.998199 288.096313,206.551682 
	C288.143463,194.392014 288.086090,182.678848 288.028717,170.965698 
	C288.028717,170.965698 287.991791,171.001770 287.973480,171.019958 
z"/>
<path fill="#FFFEFD" opacity="1.000000" stroke="none" 
	d="
M287.628601,170.970688 
	C288.086090,182.678848 288.143463,194.392014 288.114838,206.569778 
	C277.721039,206.355011 270.349213,199.100418 270.109650,189.400192 
	C269.870972,179.733719 276.769958,172.308533 287.628601,170.970688 
z"/>
</svg>