<?xml version="1.0" encoding="utf-8"?>
<!-- Generator: Adobe Illustrator 27.1.0, SVG Export Plug-In . SVG Version: 6.00 Build 0)  -->
<svg version="1.1" id="tcs" xmlns="http://www.w3.org/2000/svg" xmlns:xlink="http://www.w3.org/1999/xlink" x="0px" y="0px"
	 viewBox="0 0 693 430" style="enable-background:new 0 0 693 430;" xml:space="preserve">
<style type="text/css">
	.st0{fill:#BFFFBF;stroke:#000000;stroke-width:2;stroke-miterlimit:10;}
	.st1{fill:#BFFFBF;}
	
		.st2{fill:none;stroke:#000000;stroke-width:2;stroke-linecap:round;stroke-linejoin:round;stroke-miterlimit:10;stroke-dasharray:4,4;}
	.st3{fill:#FFFFFF;}
	.st4{fill:none;stroke:#000000;stroke-width:2;stroke-linecap:round;stroke-linejoin:round;stroke-miterlimit:10;}
	.st5{fill:none;stroke:#000000;stroke-miterlimit:10;}
	.st6{fill:none;stroke:#000000;stroke-linecap:round;stroke-linejoin:round;stroke-miterlimit:10;}
	.st7{fill:none;}
	.st8{font-family:'TimesNewRomanPSMT';}
	.st9{font-size:18px;}
	.st10{font-size:27px;}
	.st11{fill:none;stroke:#000000;stroke-width:3;stroke-linecap:round;stroke-linejoin:round;stroke-miterlimit:10;}
	.st12{fill:none;stroke:#000000;stroke-width:3;stroke-miterlimit:10;}
	.st13{fill:none;stroke:#666666;stroke-width:2;stroke-linecap:round;stroke-linejoin:round;stroke-miterlimit:10;}
	.st14{fill:#666666;}
	.st15{fill:none;stroke:#666666;stroke-width:2;stroke-miterlimit:10;}
</style>
<g id="careerline">
	<line id="cl5" class="st0" x1="511" y1="130.1" x2="629" y2="111.1"/>
	<line id="cl4" class="st0" x1="401" y1="210.1" x2="511" y2="130.1"/>
	<line id="cl3" class="st0" x1="357" y1="210.1" x2="401" y2="210.1"/>
	<line id="cl2" class="st0" x1="221" y1="269.1" x2="357" y2="210.1"/>
	<line id="cl1" class="st0" x1="120" y1="350.1" x2="221" y2="269.1"/>
</g>
<polyline id="area" class="st1" points="221,271 357,212 401,212 511,132 629,113 629,391 120,391 120,352 "/>
<g id="line1">
	<line class="st2" x1="356" y1="219" x2="356" y2="392.4"/>
	<path class="st3" d="M361.7,206.3c3.1,3.1,3.1,8.2,0,11.3s-8.2,3.1-11.3,0c-3.1-3.1-3.1-8.2,0-11.3
		C353.5,203.2,358.5,203.2,361.7,206.3"/>
	<path class="st4" d="M361.7,206.3c3.1,3.1,3.1,8.2,0,11.3s-8.2,3.1-11.3,0c-3.1-3.1-3.1-8.2,0-11.3
		C353.5,203.2,358.5,203.2,361.7,206.3"/>
</g>
<g id="line3">
	<path class="st3" d="M515.7,127.3c3.1,3.1,3.1,8.2,0,11.3s-8.2,3.1-11.3,0c-3.1-3.1-3.1-8.2,0-11.3
		C507.5,124.2,512.5,124.2,515.7,127.3"/>
	<line class="st2" x1="510" y1="140" x2="510" y2="392.4"/>
	<path class="st4" d="M515.7,127.3c3.1,3.1,3.1,8.2,0,11.3s-8.2,3.1-11.3,0c-3.1-3.1-3.1-8.2,0-11.3
		C507.5,124.2,512.5,124.2,515.7,127.3"/>
</g>
<g id="line2">
	<path class="st4" d="M405,205.7c3.1,3.1,3.1,8.2,0,11.3s-8.2,3.1-11.3,0s-3.1-8.2,0-11.3S401.8,202.5,405,205.7"/>
	<path class="st3" d="M404.2,206.4c2.7,2.7,2.7,7.1,0,9.8s-7.1,2.7-9.8,0s-2.7-7.1,0-9.8C397.1,203.7,401.5,203.7,404.2,206.4"/>
	<line class="st2" x1="399.3" y1="218.3" x2="399.3" y2="392.4"/>
</g>
<g id="firstAppearance">
	<polygon points="219,261.1 222,253.1 216,253.1 	"/>
	<line class="st2" x1="219" y1="279" x2="219" y2="392.4"/>
	<polygon class="st5" points="219,261.1 222,253.1 216,253.1 	"/>
	<line class="st6" x1="219" y1="212" x2="219" y2="253.1"/>
	<rect x="127.7" y="191.9" class="st7" width="183.1" height="23.1"/>
	<text transform="matrix(1 0 0 1 127.6511 206.883)" class="st8 st9">First appearance in AJD</text>
	<path class="st3" d="M224.7,266.3c3.1,3.1,3.1,8.2,0,11.3c-3.1,3.1-8.2,3.1-11.3,0s-3.1-8.2,0-11.3S221.5,263.2,224.7,266.3"/>
	<path class="st4" d="M224.7,266.3c3.1,3.1,3.1,8.2,0,11.3c-3.1,3.1-8.2,3.1-11.3,0s-3.1-8.2,0-11.3S221.5,263.2,224.7,266.3"/>
</g>
<g id="lastAppearance">
	<line class="st2" x1="628" y1="120" x2="628" y2="392.4"/>
	<rect x="463.2" y="64.6" class="st7" width="173" height="23.1"/>
	<text transform="matrix(1 0 0 1 463.2427 79.5974)" class="st8 st9">Last appearance in AJD</text>
	<path class="st3" d="M633.7,107.3c3.1,3.1,3.1,8.2,0,11.3c-3.1,3.1-8.2,3.1-11.3,0s-3.1-8.2,0-11.3S630.5,104.2,633.7,107.3"/>
	<path class="st4" d="M633.7,107.3c3.1,3.1,3.1,8.2,0,11.3c-3.1,3.1-8.2,3.1-11.3,0s-3.1-8.2,0-11.3S630.5,104.2,633.7,107.3"/>
	<line class="st6" x1="572.4" y1="87" x2="610.9" y2="105"/>
	<polygon points="618.1,108.4 612.2,102.3 609.6,107.7 	"/>
	<polygon class="st5" points="618.1,108.4 612.2,102.3 609.6,107.7 	"/>
</g>
<g id="passingGwageo">
	<line class="st2" x1="120" y1="360" x2="120" y2="392.4"/>
	<text transform="matrix(1 0 0 1 87.632 285.7791)" class="st8 st9">Passing</text>
	<text transform="matrix(1 0 0 1 85.132 307.3791)" class="st8 st9">Gwageo</text>
	<path d="M125.7,346.3c3.1,3.1,3.1,8.2,0,11.3c-3.1,3.1-8.2,3.1-11.3,0c-3.1-3.1-3.1-8.2,0-11.3
		C117.5,343.2,122.5,343.2,125.7,346.3"/>
	<path class="st6" d="M125.7,346.3c3.1,3.1,3.1,8.2,0,11.3c-3.1,3.1-8.2,3.1-11.3,0c-3.1-3.1-3.1-8.2,0-11.3
		C117.5,343.2,122.5,343.2,125.7,346.3"/>
	<line class="st6" x1="112.2" y1="312" x2="116.6" y2="334.4"/>
	<polygon points="118.1,342.3 119.5,333.9 113.6,335 	"/>
	<polygon class="st5" points="118.1,342.3 119.5,333.9 113.6,335 	"/>
</g>
<g id="totalSuccess">
	<rect x="143.5" y="56.9" class="st7" width="271.2" height="30.8"/>
	<text transform="matrix(1 0 0 1 143.5103 79.3284)" class="st8 st10">AREA = Total Success</text>
	<line class="st11" x1="287.7" y1="87" x2="462.8" y2="232.5"/>
	<polygon points="471.4,239.6 465.5,229.3 460.1,235.7 	"/>
	<polygon class="st12" points="471.4,239.6 465.5,229.3 460.1,235.7 	"/>
</g>
<g id="base">
	<line class="st13" x1="61" y1="392.4" x2="61" y2="18.7"/>
	<polygon class="st14" points="61,4.3 55.6,18.7 66.4,18.7 	"/>
	<polygon class="st15" points="61,4.3 55.6,18.7 66.4,18.7 	"/>
	<polygon class="st14" points="685.7,392.4 671.3,387 671.3,397.8 	"/>
	<path class="st13" d="M61,392.4h610.3H61z"/>
	<polygon class="st15" points="685.7,392.4 671.3,387 671.3,397.8 	"/>
	<text transform="matrix(6.123234e-17 -1 1 6.123234e-17 25.7443 230.6465)" class="st8 st9">Grade</text>
	<text transform="matrix(1 0 0 1 629.0715 413.8321)" class="st8 st9">Time</text>
	<text transform="matrix(1 0 0 1 37.4244 96.6276)" class="st8 st9">15</text>
	<text transform="matrix(1 0 0 1 37.4244 195.5886)" class="st8 st9">10</text>
	<text transform="matrix(1 0 0 1 44.8479 300.9016)" class="st8 st9">5</text>
	<text transform="matrix(1 0 0 1 44.8479 382.9841)" class="st8 st9">1</text>
</g>
</svg>
