<?xml version="1.0" encoding="utf-8"?>
<!-- Generator: Adobe Illustrator 27.7.0, SVG Export Plug-In . SVG Version: 6.00 Build 0)  -->
<svg version="1.1" id="_레이어_2" xmlns="http://www.w3.org/2000/svg" xmlns:xlink="http://www.w3.org/1999/xlink" x="0px"
	 y="0px" viewBox="0 0 916.9 352.6" enable-background="new 0 0 916.9 352.6" xml:space="preserve">
<g id="Layer_1">
	<polyline fill="none" stroke="#9FA0A0" stroke-width="1.5" stroke-miterlimit="10" points="100.4,18.2 100.4,243.2 100.4,352.6 	
		"/>
	<line fill="none" stroke="#9FA0A0" stroke-width="1.5" stroke-miterlimit="10" x1="215.1" y1="17.3" x2="215.1" y2="351.6"/>
	<line fill="none" stroke="#9FA0A0" stroke-width="1.5" stroke-miterlimit="10" x1="333.5" y1="17.3" x2="333.5" y2="351.6"/>
	<line fill="none" stroke="#9FA0A0" stroke-width="1.5" stroke-miterlimit="10" x1="447.2" y1="17.3" x2="447.2" y2="351.6"/>
	<line fill="none" stroke="#9FA0A0" stroke-width="1.5" stroke-miterlimit="10" x1="555.2" y1="18.2" x2="555.2" y2="352.6"/>
	<line fill="none" stroke="#9FA0A0" stroke-width="1.5" stroke-miterlimit="10" x1="668.9" y1="18.2" x2="668.9" y2="352.6"/>
	<line fill="none" stroke="#9FA0A0" stroke-width="1.5" stroke-miterlimit="10" x1="782.6" y1="18.2" x2="782.6" y2="352.6"/>
	<line fill="none" stroke="#9FA0A0" stroke-width="1.5" stroke-miterlimit="10" x1="896.3" y1="18.2" x2="896.3" y2="352.6"/>
	<text transform="matrix(1 0 0 1 88.11 10.04)" fill="#231815" font-family="'IM_FELL_English_Roman'" font-size="12px">1300</text>
	<text transform="matrix(1 0 0 1 201.81 10.04)" fill="#231815" font-family="'IM_FELL_English_Roman'" font-size="12px">1400</text>
	<text transform="matrix(1 0 0 1 315.51 10.04)" fill="#231815" font-family="'IM_FELL_English_Roman'" font-size="12px">1500</text>
	<text transform="matrix(1 0 0 1 429.21 10.04)" fill="#231815" font-family="'IM_FELL_English_Roman'" font-size="12px">1600</text>
	<text transform="matrix(1 0 0 1 542.92 10.04)" fill="#231815" font-family="'IM_FELL_English_Roman'" font-size="12px">1700</text>
	<text transform="matrix(1 0 0 1 656.62 10.04)" fill="#231815" font-family="'IM_FELL_English_Roman'" font-size="12px">1800</text>
	<text transform="matrix(1 0 0 1 770.32 10.04)" fill="#231815" font-family="'IM_FELL_English_Roman'" font-size="12px">1900</text>
	<text transform="matrix(1 0 0 1 884.02 10.04)" fill="#231815" font-family="'IM_FELL_English_Roman'" font-size="12px">2000</text>
	<text transform="matrix(1 0 0 1 13.96 71.8)" fill="#231815" font-family="'IM_FELL_English_Roman'" font-size="18px">Korea</text>
	<text transform="matrix(1 0 0 1 14.81 126.68)" fill="#231815" font-family="'IM_FELL_English_Roman'" font-size="18px">China</text>
	<text transform="matrix(1 0 0 1 16.24 181.56)" fill="#231815" font-family="'IM_FELL_English_Roman'" font-size="18px">Japan</text>
	<text transform="matrix(1 0 0 1 4.82 237.8)" fill="#231815" font-family="'IM_FELL_English_Roman'" font-size="18px">England</text>
	<text transform="matrix(1 0 0 1 17.42 282.69)" fill="#231815" font-family="'IM_FELL_English_Roman'" font-size="18px">North</text>
	<text transform="matrix(1 0 0 1 6.42 304.29)" fill="#231815" font-family="'IM_FELL_English_Roman'" font-size="18px">America</text>
	<polygon fill="#15A0BF" stroke="#026AAD" stroke-width="0.5" stroke-miterlimit="10" points="916.4,233.7 897.6,250.3 897.6,217.1 
			"/>
	<polygon fill="#BF154B" stroke="#88127C" stroke-width="0.5" stroke-miterlimit="10" points="80.4,291.6 100.3,274.9 100.3,308.3 	
		"/>
	<polygon fill="#BF154B" stroke="#88127C" stroke-width="0.5" stroke-miterlimit="10" points="916.6,291.5 897.6,308 897.6,274.9 	
		"/>
	<line fill="none" stroke="#00913A" stroke-width="4" stroke-miterlimit="10" x1="100.4" y1="175" x2="135.4" y2="175"/>
	<circle fill="#231815" cx="135.4" cy="175" r="2.8"/>
	<polygon fill="#BF3415" stroke="#D81619" stroke-width="0.5" stroke-miterlimit="10" points="80.2,66.4 99.1,49.4 99.1,83.3 	"/>
	<rect x="99.9" y="49.1" fill="#BF3415" stroke="#FFFFFF" stroke-width="0.5" stroke-miterlimit="10" width="95.2" height="34.4"/>
	<text transform="matrix(1 0 0 1 116.59 71.8)" fill="#FFFFFF" font-family="'IM_FELL_English_Roman'" font-size="18px">Goryeo</text>
	
		<rect x="195.4" y="49.1" fill="#BF3415" stroke="#FFFFFF" stroke-width="0.5" stroke-miterlimit="10" width="606.2" height="34.4"/>
	<text transform="matrix(1 0 0 1 465.65 72.87)" fill="#FFFFFF" font-family="'IM_FELL_English_Roman'" font-size="18px">Joseon</text>
	<rect x="801.7" y="49.1" fill="#BF3415" stroke="#FFFFFF" stroke-width="0.5" stroke-miterlimit="10" width="44.6" height="34.4"/>
	<text transform="matrix(1 0 0 1 802.04 63.6)" fill="#FFFFFF" font-family="'IM_FELL_English_Roman'" font-size="10px">Japanese</text>
	<text transform="matrix(1 0 0 1 805.66 75.6)" fill="#FFFFFF" font-family="'IM_FELL_English_Roman'" font-size="10px">Colonial</text>
	<rect x="846.4" y="49.1" fill="#BF3415" stroke="#FFFFFF" stroke-width="0.5" stroke-miterlimit="10" width="50.6" height="34.4"/>
	<text transform="matrix(1 0 0 1 855.91 63.47)" fill="#FFFFFF" font-family="'IM_FELL_English_Roman'" font-size="10px">ROK / </text>
	<text transform="matrix(1 0 0 1 857.58 75.47)" fill="#FFFFFF" font-family="'IM_FELL_English_Roman'" font-size="10px">DPRK</text>
	<polygon fill="#BF3415" stroke="#D81619" stroke-width="0.5" stroke-miterlimit="10" points="916.1,66.5 897.7,50 897.7,83.1 	"/>
	<polygon fill="#BF9821" points="81.1,119 99.7,101.6 99.7,136.4 	"/>
	<rect x="99.9" y="101.9" fill="#BF9821" stroke="#231815" stroke-width="0.5" stroke-miterlimit="10" width="59.7" height="34.4"/>
	<text transform="matrix(1 0 0 1 110.42 123.95)" fill="#FFFFFF" font-family="'NanumBarunGothicBold'" font-size="18px">Y</text>
	<text transform="matrix(1 0 0 1 120.54 123.95)" fill="#FFFFFF" font-family="'NanumBarunGothicBold'" font-size="18px">u</text>
	<text transform="matrix(1 0 0 1 131.19 123.95)" fill="#FFFFFF" font-family="'NanumBarunGothicBold'" font-size="18px">a</text>
	<text transform="matrix(1 0 0 1 140.45 123.95)" fill="#FFFFFF" font-family="'NanumBarunGothicBold'" font-size="18px">n</text>
	
		<rect x="159.8" y="101.9" fill="#BF9821" stroke="#FFFFFF" stroke-width="0.5" stroke-miterlimit="10" width="344.3" height="34.4"/>
	<text transform="matrix(1 0 0 1 305.06 123.97)" fill="#FFFFFF" font-family="'IM_FELL_English_Roman'" font-size="18px"> Ming </text>
	<rect x="99.9" y="101.9" fill="#BF9821" stroke="#231815" stroke-width="0.5" stroke-miterlimit="10" width="59.7" height="34.4"/>
	<rect x="99.9" y="101.9" fill="#BF9821" stroke="#FFFFFF" stroke-width="0.5" stroke-miterlimit="10" width="59.7" height="34.4"/>
	
		<rect x="504.1" y="101.9" fill="#BF9821" stroke="#FFFFFF" stroke-width="0.5" stroke-miterlimit="10" width="298.9" height="34.4"/>
	<text transform="matrix(1 0 0 1 633.25 123.97)" fill="#FFFFFF" font-family="'IM_FELL_English_Roman'" font-size="18px"> Qing</text>
	<rect x="803" y="101.9" fill="#BF9821" stroke="#FFFFFF" stroke-width="0.5" stroke-miterlimit="10" width="93.9" height="34.4"/>
	<text transform="matrix(1 0 0 1 829.84 115.12)" fill="#FFFFFF" font-family="'IM_FELL_English_Roman'" font-size="12px">Modern</text>
	<text transform="matrix(1 0 0 1 834.51 127.12)" fill="#FFFFFF" font-family="'IM_FELL_English_Roman'" font-size="12px">China</text>
	<polygon fill="#BF9821" points="915.5,119.2 897.4,102.2 897.4,136.1 	"/>
	
		<text transform="matrix(1 0 0 1 110.73 124.34)" fill="#FFFFFF" font-family="'IM_FELL_English_Roman'" font-size="18px" letter-spacing="-1">Y</text>
	<text transform="matrix(1 0 0 1 121.74 124.34)" fill="#FFFFFF" font-family="'IM_FELL_English_Roman'" font-size="18px">uan</text>
	<polygon fill="#15BF34" points="81.1,174.9 99.7,157.7 99.7,192 	"/>
	<rect x="99.9" y="157.7" fill="#15BF34" stroke="#FFFFFF" stroke-width="0.5" stroke-miterlimit="10" width="59.7" height="34.4"/>
	<text transform="matrix(1 0 0 1 103.51 177.4)" fill="#FFFFFF" font-family="'IM_FELL_English_Roman'" font-size="12px">Kamakura</text>
	
		<rect x="159.8" y="157.7" fill="#15BF34" stroke="#FFFFFF" stroke-width="0.5" stroke-miterlimit="10" width="222.7" height="34.4"/>
	<text transform="matrix(1 0 0 1 212.93 179.89)" fill="#FFFFFF" font-family="'IM_FELL_English_Roman'" font-size="18px">Muromachi</text>
	
		<rect x="382.5" y="157.7" fill="#15BF34" stroke="#FFFFFF" stroke-width="0.5" stroke-miterlimit="10" width="64.7" height="34.4"/>
	<text transform="matrix(1 0 0 1 396.85 171.89)" fill="#FFFFFF" font-family="'IM_FELL_English_Roman'" font-size="12px">Azuchi</text>
	<text transform="matrix(1 0 0 1 383.52 186.29)" fill="#FFFFFF" font-family="'IM_FELL_English_Roman'" font-size="12px">Momoyama</text>
	
		<rect x="447.5" y="157.7" fill="#15BF34" stroke="#FFFFFF" stroke-width="0.5" stroke-miterlimit="10" width="292.8" height="34.4"/>
	<text transform="matrix(1 0 0 1 575.4 179.89)" fill="#FFFFFF" font-family="'IM_FELL_English_Roman'" font-size="18px">Edo</text>
	<rect x="740" y="157.7" fill="#15BF34" stroke="#FFFFFF" stroke-width="0.5" stroke-miterlimit="10" width="64.3" height="34.4"/>
	<text transform="matrix(1 0 0 1 753.06 179.04)" fill="#FFFFFF" font-family="'IM_FELL_English_Roman'" font-size="18px">Meiji</text>
	
		<rect x="804.3" y="157.7" fill="#15BF34" stroke="#FFFFFF" stroke-width="0.5" stroke-miterlimit="10" width="92.7" height="34.4"/>
	<text transform="matrix(1 0 0 1 830.41 172.87)" fill="#FFFFFF" font-family="'IM_FELL_English_Roman'" font-size="12px">Modern </text>
	<text transform="matrix(1 0 0 1 834.41 184.87)" fill="#FFFFFF" font-family="'IM_FELL_English_Roman'" font-size="12px">Japan</text>
	<polygon fill="#15BF34" points="915.6,174.9 897.5,157.7 897.5,192.1 	"/>
	<polygon fill="#15A0BF" points="81.1,233.4 99.7,216.3 99.7,250.6 	"/>
	
		<rect x="99.9" y="216.5" fill="#15A0BF" stroke="#FFFFFF" stroke-width="0.5" stroke-miterlimit="10" width="113.2" height="34.4"/>
	<text transform="matrix(1 0 0 1 105.8 238.77)" fill="#FFFFFF" font-family="'IM_FELL_English_Roman'" font-size="18px">Plantagenet</text>
	
		<rect x="213.1" y="216.5" fill="#15A0BF" stroke="#FFFFFF" stroke-width="0.5" stroke-miterlimit="10" width="89.7" height="34.4"/>
	<text transform="matrix(1 0 0 1 228.96 231.43)" fill="#FFFFFF" font-family="'IM_FELL_English_Roman'" font-size="12px">Lancaster / </text>
	
		<text transform="matrix(1 0 0 1 249.19 243.43)" fill="#FFFFFF" font-family="'IM_FELL_English_Roman'" font-size="12px" letter-spacing="-1">Y</text>
	<text transform="matrix(1 0 0 1 256.09 243.43)" fill="#FFFFFF" font-family="'IM_FELL_English_Roman'" font-size="12px">ork</text>
	
		<rect x="302.8" y="216.5" fill="#15A0BF" stroke="#FFFFFF" stroke-width="0.5" stroke-miterlimit="10" width="150.6" height="34.4"/>
	<text transform="matrix(1 0 0 1 354.16 239.5)" fill="#FFFFFF" font-family="'IM_FELL_English_Roman'" font-size="18px">T</text>
	<text transform="matrix(1 0 0 1 364.49 239.5)" fill="#FFFFFF" font-family="'IM_FELL_English_Roman'" font-size="18px">udor</text>
	
		<rect x="453.4" y="216.5" fill="#15A0BF" stroke="#FFFFFF" stroke-width="0.5" stroke-miterlimit="10" width="116.4" height="34.4"/>
	<text transform="matrix(1 0 0 1 489.05 238.48)" fill="#FFFFFF" font-family="'IM_FELL_English_Roman'" font-size="18px">Stuart</text>
	
		<rect x="569.9" y="216.5" fill="#15A0BF" stroke="#FFFFFF" stroke-width="0.5" stroke-miterlimit="10" width="217.3" height="34.4"/>
	<text transform="matrix(1 0 0 1 644.52 238.49)" fill="#FFFFFF" font-family="'IM_FELL_English_Roman'" font-size="18px">Hanover</text>
	
		<rect x="787.4" y="216.5" fill="#15A0BF" stroke="#FFFFFF" stroke-width="0.5" stroke-miterlimit="10" width="109.8" height="34.4"/>
	<text transform="matrix(1 0 0 1 808.67 239.11)" fill="#FFFFFF" font-family="'IM_FELL_English_Roman'" font-size="18px">Windsor</text>
	
		<rect x="100.4" y="274.4" fill="#BF154B" stroke="#FFFFFF" stroke-width="0.5" stroke-miterlimit="10" width="358.4" height="34.4"/>
	<text transform="matrix(1 0 0 1 227.01 296.2)" fill="#FFFFFF" font-family="'IM_FELL_English_Roman'" font-size="18px">Pre-colonial</text>
	
		<rect x="458.1" y="274.4" fill="#BF154B" stroke="#FFFFFF" stroke-width="0.5" stroke-miterlimit="10" width="179.2" height="34.4"/>
	<text transform="matrix(1 0 0 1 469.24 297.41)" fill="#FFFFFF" font-family="'IM_FELL_English_Roman'" font-size="18px">European  Colonial</text>
	
		<rect x="637.3" y="274.4" fill="#BF154B" stroke="#FFFFFF" stroke-width="0.5" stroke-miterlimit="10" width="125.7" height="34.4"/>
	<rect x="763" y="274.4" fill="#BF154B" stroke="#FFFFFF" stroke-width="0.5" stroke-miterlimit="10" width="134.2" height="34.4"/>
	<text transform="matrix(1 0 0 1 643.13 286.31)" fill="#FFFFFF" font-family="'IM_FELL_English_Roman'" font-size="11px">American Revolution /</text>
	<text transform="matrix(1 0 0 1 643.44 296.31)" fill="#FFFFFF" font-family="'IM_FELL_English_Roman'" font-size="11px">Formation of Dominion</text>
	<text transform="matrix(1 0 0 1 673.69 306.31)" fill="#FFFFFF" font-family="'IM_FELL_English_Roman'" font-size="11px">of Canada</text>
	<text transform="matrix(1 0 0 1 774.48 298.34)" fill="#FFFFFF" font-family="'IM_FELL_English_Roman'" font-size="18px">US / Canada</text>
</g>
</svg>
